<?xml version="1.0" encoding="utf-8"?>
<!-- Generator: Adobe Illustrator 24.0.2, SVG Export Plug-In . SVG Version: 6.00 Build 0)  -->
<svg version="1.1" id="Слой_1" xmlns="http://www.w3.org/2000/svg" xmlns:xlink="http://www.w3.org/1999/xlink" x="0px" y="0px"
	 viewBox="0 0 32 32" style="enable-background:new 0 0 32 32;" xml:space="preserve">
<style type="text/css">
	.st0{fill:#DD6A44;}
	.st1{fill:#324D5B;}
	.st2{fill:#DD9244;}
	.st3{fill:#88C0C2;}
	.st4{fill:#E4E7E7;}
</style>
<path class="st0" d="M2,17h28c1.1,0,2,0.9,2,2v9c0,1.1-0.9,2-2,2H2c-1.1,0-2-0.9-2-2v-9C0,17.9,0.9,17,2,17z"/>
<path class="st1" d="M16,2c1.3,0,2.4,0.8,2.8,2H21c0-2.2-2.2-4-5-4c-2.8,0-5,1.8-5,4h2.2C13.6,2.8,14.7,2,16,2z"/>
<path class="st2" d="M9,4h14c3.3,0,6,2.7,6,6v20c0,1.1-0.9,2-2,2H5c-1.1,0-2-0.9-2-2V10C3,6.7,5.7,4,9,4z"/>
<path class="st0" d="M6,4h20c2.2,0,4,1.8,4,4v4c0,2.2-1.8,4-4,4H6c-2.2,0-4-1.8-4-4V8C2,5.8,3.8,4,6,4z"/>
<path class="st3" d="M8,25c0,0,0.8,2,1.5,2c0.7,0,1.5-2,1.5-2V4H8V25z M21,4v21c0,0,0.8,2,1.5,2c0.7,0,1.5-2,1.5-2V4H21z"/>
<path class="st4" d="M7,23h5v-3H7V23z M20,20v3h5v-3H20z"/>
</svg>
